<svg width="24" height="24" viewBox="0 0 24 24" fill="none" xmlns="http://www.w3.org/2000/svg">
<g id="Frame">
<g id="Group">
<path id="Vector" d="M21.782 15.7472H18.2912C17.5071 15.7472 17.4359 16.0725 17.3302 16.7688C17.0446 18.4464 15.4428 19.4725 13.5193 19.4725C11.3111 19.4725 9.5338 17.735 9.39067 15.7418H14.3267C14.9323 15.7418 15.3596 15.5327 15.3596 14.7284V13.7285C15.3596 12.9265 14.9323 12.7406 14.3267 12.7406H9.35548V11.2504H14.3267C14.9323 11.2504 15.3596 11.042 15.3596 10.237V9.23707C15.3596 8.43427 14.9323 8.22364 14.3267 8.22364H9.42668C9.67628 6.40668 11.3943 4.49222 13.4962 4.49222C15.4196 4.49222 16.5102 5.25004 17.2598 6.4029C17.5447 6.82267 17.5806 7.4853 18.3287 7.4853H21.7715C22.5908 7.4853 22.8764 7.19296 22.8764 6.35571C22.4131 1.91964 18.0093 0 13.5913 0C9.38993 0 4.20056 2.84313 4.09335 8.2229H2.15644C1.51634 8.2229 1.12354 8.43205 1.12354 9.23633V10.2363C1.12354 11.0398 1.5156 11.2497 2.15644 11.2497H3.38872V12.7391H2.15644C1.51634 12.7391 1.12354 12.9483 1.12354 13.7526V14.7292C1.12354 15.5313 1.5156 15.7427 2.15644 15.7427H4.09113V15.8836C4.09113 21.3675 9.28125 24 13.5193 24C17.9373 24 22.8501 21.3473 22.8501 16.8393C22.8501 16.0012 22.5653 15.7472 21.782 15.7472Z" fill="white"/>
</g>
</g>
</svg>
