<svg width="24" height="24" viewBox="0 0 24 24" fill="none" xmlns="http://www.w3.org/2000/svg">
<g id="Frame">
<path id="XMLID_449_" d="M13.0909 12.3636C16.4996 12.3636 19.2728 9.59047 19.2728 6.18182C19.2728 2.77316 16.4996 0 13.0909 0C13.0776 0 13.0644 0.000218182 13.0512 0.000727273H8.00148C8.00097 0.000727273 8.00053 0.000654545 8.0001 0.000654545C7.39762 0.000654545 6.90919 0.489091 6.90919 1.09156V1.09164V11.2727V14.5455H5.8182C5.21573 14.5455 4.72729 15.0339 4.72729 15.6364C4.72729 16.2388 5.21573 16.7273 5.8182 16.7273H6.90911V22.9091C6.90911 23.5116 7.39755 24 8.00002 24C8.6025 24 9.09093 23.5116 9.09093 22.9091V16.7273H13.0909C13.6934 16.7273 14.1818 16.2388 14.1818 15.6364C14.1818 15.0339 13.6934 14.5455 13.0909 14.5455H9.09093V12.3636H13.0909ZM13.0909 2.18255C13.1027 2.18255 13.1145 2.18233 13.1261 2.18196C15.3157 2.20087 17.0909 3.98793 17.0909 6.18182C17.0909 8.38742 15.2965 10.1818 13.0909 10.1818H9.09093V2.18255H13.0909Z" fill="white"/>
</g>
</svg>
